<?xml version="1.0" encoding="UTF-8"?>
<svg width="1000" height="300" viewBox="0 0 1000 300" xmlns="http://www.w3.org/2000/svg">
  <defs>
    <linearGradient id="bannerGradient" x1="0%" y1="0%" x2="100%" y2="0%">
      <stop offset="0%" style="stop-color:#3A86FF;stop-opacity:1" />
      <stop offset="50%" style="stop-color:#06D6A0;stop-opacity:1" />
      <stop offset="100%" style="stop-color:#3A86FF;stop-opacity:1" />
    </linearGradient>
    <linearGradient id="logoGradient" x1="0%" y1="0%" x2="100%" y2="100%">
      <stop offset="0%" style="stop-color:#FFFFFF;stop-opacity:0.95" />
      <stop offset="100%" style="stop-color:#FFFFFF;stop-opacity:0.8" />
    </linearGradient>
    <linearGradient id="textGradient" x1="0%" y1="0%" x2="100%" y2="0%">
      <stop offset="0%" style="stop-color:#FFFFFF;stop-opacity:1" />
      <stop offset="100%" style="stop-color:#F7FAFC;stop-opacity:1" />
    </linearGradient>
  </defs>
  
  <!-- Background -->
  <rect width="1000" height="300" fill="url(#bannerGradient)"/>
  
  <!-- Decorative elements -->
  <g opacity="0.1">
    <circle cx="100" cy="50" r="30" fill="#FFFFFF"/>
    <circle cx="900" cy="80" r="40" fill="#FFFFFF"/>
    <circle cx="150" cy="250" r="25" fill="#FFFFFF"/>
    <circle cx="850" cy="220" r="35" fill="#FFFFFF"/>
  </g>
  
  <!-- Main logo (left side) -->
  <g transform="translate(80, 60)">
    <!-- Logo background circle -->
    <circle cx="60" cy="60" r="50" fill="url(#logoGradient)" opacity="0.9"/>
    
    <!-- Brain/Head silhouette -->
    <path d="M40 30 C40 15, 50 10, 60 15 C70 10, 80 15, 80 30 C80 45, 70 60, 60 65 C50 60, 40 45, 40 30 Z" 
          fill="#3A86FF" 
          stroke="none"/>
    
    <!-- Brain waves -->
    <g stroke="#FFFFFF" stroke-width="2" fill="none" opacity="0.9">
      <path d="M45 40 Q50 35, 55 40 Q60 45, 65 40 Q70 35, 75 40"/>
      <path d="M45 50 Q50 45, 55 50 Q60 55, 65 50 Q70 45, 75 50"/>
    </g>
    
    <!-- Heart rate line -->
    <g stroke="#FFFFFF" stroke-width="2" fill="none" opacity="0.9">
      <path d="M30 80 L40 70 L50 90 L60 60 L70 100 L80 70 L90 80"/>
    </g>
    
    <!-- Fitness element -->
    <g fill="#FFFFFF" opacity="0.8">
      <rect x="30" y="90" width="2" height="5" rx="1"/>
      <rect x="88" y="90" width="2" height="5" rx="1"/>
      <rect x="32" y="91.5" width="54" height="2" rx="1"/>
    </g>
  </g>
  
  <!-- Main text -->
  <text x="250" y="120" 
        font-family="Inter, sans-serif" 
        font-size="48" 
        font-weight="800" 
        fill="url(#textGradient)">
    FitMind
  </text>
  
  <!-- Subtitle -->
  <text x="250" y="160" 
        font-family="Inter, sans-serif" 
        font-size="24" 
        font-weight="400" 
        fill="url(#textGradient)" 
        opacity="0.9">
    Entrena tu mente, fortalece tus hábitos
  </text>
  
  <!-- Emojis -->
  <text x="250" y="200" 
        font-family="Inter, sans-serif" 
        font-size="32" 
        font-weight="400">
    💪🧠
  </text>
  
  <!-- Feature highlights -->
  <g transform="translate(250, 240)">
    <rect x="0" y="0" width="8" height="8" fill="#FFFFFF" opacity="0.8" rx="1"/>
    <text x="15" y="7" 
          font-family="Inter, sans-serif" 
          font-size="14" 
          font-weight="500" 
          fill="#FFFFFF" 
          opacity="0.9">
      Hábitos personalizados
    </text>
    
    <rect x="200" y="0" width="8" height="8" fill="#FFFFFF" opacity="0.8" rx="1"/>
    <text x="215" y="7" 
          font-family="Inter, sans-serif" 
          font-size="14" 
          font-weight="500" 
          fill="#FFFFFF" 
          opacity="0.9">
      Progreso visual
    </text>
    
    <rect x="400" y="0" width="8" height="8" fill="#FFFFFF" opacity="0.8" rx="1"/>
    <text x="415" y="7" 
          font-family="Inter, sans-serif" 
          font-size="14" 
          font-weight="500" 
          fill="#FFFFFF" 
          opacity="0.9">
      Modo offline
    </text>
  </g>
  
  <!-- Right side decorative elements -->
  <g transform="translate(750, 80)" opacity="0.6">
    <!-- Floating icons -->
    <circle cx="0" cy="0" r="15" fill="#FFFFFF" opacity="0.3"/>
    <circle cx="40" cy="20" r="12" fill="#FFFFFF" opacity="0.2"/>
    <circle cx="80" cy="10" r="18" fill="#FFFFFF" opacity="0.25"/>
    <circle cx="120" cy="30" r="10" fill="#FFFFFF" opacity="0.2"/>
    
    <!-- Connection lines -->
    <g stroke="#FFFFFF" stroke-width="2" opacity="0.3">
      <line x1="15" y1="0" x2="40" y2="20"/>
      <line x1="52" y1="20" x2="80" y2="10"/>
      <line x1="98" y1="10" x2="120" y2="30"/>
    </g>
  </g>
  
  <!-- Bottom accent line -->
  <rect x="0" y="295" width="1000" height="5" fill="#FFFFFF" opacity="0.3"/>
</svg>
